<?xml version="1.0" standalone="no"?><svg xmlns="http://www.w3.org/2000/svg" viewBox="0 0 1440 320"><path fill="#e6e6e6" fill-opacity="1" d="M0,224L30,213.3C60,203,120,181,180,192C240,203,300,245,360,245.3C420,245,480,203,540,197.3C600,192,660,224,720,213.3C780,203,840,149,900,133.3C960,117,1020,139,1080,122.7C1140,107,1200,53,1260,42.7C1320,32,1380,64,1410,80L1440,96L1440,320L1410,320C1380,320,1320,320,1260,320C1200,320,1140,320,1080,320C1020,320,960,320,900,320C840,320,780,320,720,320C660,320,600,320,540,320C480,320,420,320,360,320C300,320,240,320,180,320C120,320,60,320,30,320L0,320Z"></path></svg>